<svg width="25" height="25" viewBox="0 0 25 25" fill="none" xmlns="http://www.w3.org/2000/svg">
<path d="M21.5055 13.7324L24.1464 15.7864C24.4203 16.0211 24.4789 16.295 24.3224 16.608L21.799 20.9507C21.6425 21.2637 21.3882 21.3419 21.0361 21.1854L17.9257 19.9531C17.2215 20.4617 16.5173 20.8725 15.8131 21.1854L15.3436 24.4718C15.3045 24.8239 15.0893 25 14.698 25H9.70977C9.35766 25 9.14248 24.8239 9.06423 24.4718L8.59475 21.1854C7.8514 20.8725 7.14718 20.4617 6.48207 19.9531L3.37175 21.1854C3.01963 21.3028 2.76533 21.2246 2.60883 20.9507L0.0853606 16.608C-0.0711339 16.295 -0.0124484 16.0211 0.261417 15.7864L2.90226 13.7324C2.86314 13.2629 2.84358 12.8521 2.84358 12.5C2.84358 12.1479 2.86314 11.7371 2.90226 11.2676L0.261417 9.21361C-0.0124484 8.97887 -0.0711339 8.70501 0.0853606 8.39202L2.60883 4.0493C2.80445 3.73631 3.05876 3.65806 3.37175 3.81455L6.48207 5.04695C7.1863 4.53834 7.89052 4.12754 8.59475 3.81455L9.06423 0.528169C9.14248 0.176056 9.35766 0 9.70977 0H14.698C15.0893 0 15.3045 0.176056 15.3436 0.528169L15.8131 3.81455C16.5564 4.12754 17.2606 4.53834 17.9257 5.04695L21.0361 3.81455C21.3882 3.69718 21.6425 3.77543 21.799 4.0493L24.3224 8.39202C24.4789 8.70501 24.4203 8.97887 24.1464 9.21361L21.5055 11.2676C21.5838 11.7371 21.6229 12.1479 21.6229 12.5C21.6229 12.8521 21.5838 13.2629 21.5055 13.7324ZM12.2039 16.9014C13.3972 16.9014 14.4242 16.471 15.2849 15.6103C16.1456 14.7496 16.576 13.7128 16.576 12.5C16.576 11.2872 16.1456 10.2504 15.2849 9.38967C14.4242 8.52895 13.3972 8.09859 12.2039 8.09859C11.0106 8.09859 9.98364 8.52895 9.12292 9.38967C8.2622 10.2504 7.83184 11.2872 7.83184 12.5C7.83184 13.7128 8.2622 14.7496 9.12292 15.6103C9.98364 16.471 11.0106 16.9014 12.2039 16.9014Z" fill="white"/>
</svg>
